<mxfile host="app.diagrams.net" modified="2022-09-14T02:18:06.904Z" agent="5.0 (Windows NT 6.3; Win64; x64) AppleWebKit/537.36 (KHTML, like Gecko) Chrome/105.0.0.0 Safari/537.36 Edg/105.0.1343.33" etag="reqkSW3NwDV09Py9hiI0" version="20.3.0" type="github">
  <diagram id="qZd9gvMgyBTmiOCs26WO" name="PÃ¡gina-1">
    <mxGraphModel dx="529" dy="1614" grid="1" gridSize="10" guides="1" tooltips="1" connect="1" arrows="1" fold="1" page="1" pageScale="1" pageWidth="827" pageHeight="1169" math="0" shadow="0">
      <root>
        <mxCell id="0" />
        <mxCell id="1" parent="0" />
        <mxCell id="1c2RMLIOtYxCgTmVyBWy-6" value="" style="edgeStyle=orthogonalEdgeStyle;rounded=0;orthogonalLoop=1;jettySize=auto;html=1;" edge="1" parent="1" source="1c2RMLIOtYxCgTmVyBWy-1" target="1c2RMLIOtYxCgTmVyBWy-5">
          <mxGeometry relative="1" as="geometry" />
        </mxCell>
        <mxCell id="1c2RMLIOtYxCgTmVyBWy-1" value="Inicio" style="strokeWidth=2;html=1;shape=mxgraph.flowchart.start_2;whiteSpace=wrap;" vertex="1" parent="1">
          <mxGeometry x="10" y="-1160" width="100" height="100" as="geometry" />
        </mxCell>
        <mxCell id="1c2RMLIOtYxCgTmVyBWy-5" value="Digite a data do evento" style="strokeWidth=2;html=1;shape=mxgraph.flowchart.display;whiteSpace=wrap;" vertex="1" parent="1">
          <mxGeometry x="10" y="-1010" width="100" height="60" as="geometry" />
        </mxCell>
      </root>
    </mxGraphModel>
  </diagram>
</mxfile>
